<?xml version="1.0" encoding="UTF-8" standalone="no"?> <svg width="64" height="64" viewBox="0 0 64 64" fill="none" xmlns="http://www.w3.org/2000/svg">
<path d="M60.1801 5.06C59.8242 4.36391 59.2828 3.77975 58.6157 3.37209C57.9487 2.96442 57.1818 2.74913 56.4001 2.75H7.60006C6.81662 2.74893 6.04813 2.96443 5.37947 3.3727C4.71082 3.78097 4.16803 4.36612 3.81106 5.0635C3.45408 5.76089 3.29682 6.54338 3.35665 7.32454C3.41647 8.10569 3.69105 8.85511 4.15006 9.49L23.0001 35.54V60C23.0004 60.2134 23.0558 60.4231 23.1609 60.6087C23.266 60.7944 23.4173 60.9499 23.6001 61.06C23.7933 61.186 24.0194 61.2521 24.2501 61.25C24.4445 61.2523 24.6365 61.2077 24.8101 61.12L39.9401 53.55C40.1504 53.4482 40.3277 53.2891 40.4516 53.091C40.5754 52.8928 40.6408 52.6637 40.6401 52.43V36.18L59.8501 9.48C60.3096 8.84635 60.5838 8.09738 60.6421 7.31682C60.7003 6.53626 60.5404 5.75487 60.1801 5.06V5.06Z" fill="black"/>
</svg>
